PathFileType	4	(x/y/z)	S08_M20_T13
DataRate	CameraRate	NumFrames	NumMarkers	Units	OrigDataRate	OrigDataStartFrame	OrigNumFrames
240	240	6	51	mm	240	66	524
Frame#	Time	Sternum			R.Acromium			L.Acromium			Top.Head			R.ASIS			L.ASIS			R.PSIS			L.PSIS			R.Great.Tro			L.Great.Tro			R.Iliac.Crest			L.Iliac.Crest			V.Sacral			R.Thigh.Upper.Post			R.Thigh.Lower.Ant			R.Thigh.Lower.Post			R.Thigh.Upper.Ant			R.Knee.Lat			R.Knee.Med			R.Shank.Upper.Post			R.Shank.Lower.Ant			R.Shank.Lower.Post			R.Shank.Upper.Ant			R.Ankle.Lat			R.Ankle.Med			R.Heel.Upper			R.Heel.Med			R.Heel.Lat			R.Toe.Lat			R.Toe.Med			R.Toe.Tip			L.Thigh.Upper.Post			L.Thigh.Lower.Ant			L.Thigh.Lower.Post			L.Thigh.Upper.Ant			L.Knee.Lat			L.Knee.Med			L.Shank.Upper.Post			L.Shank.Lower.Ant			L.Shank.Lower.Post			L.Shank.Upper.Ant			L.Ankle.Lat			L.Ankle.Med			L.Heel.Upper			L.Heel.Med			L.Heel.Lat			L.Toe.Lat			L.Toe.Med			L.Toe.Tip			Cervical.Spine			Back			
		X1	Y1	Z1	X2	Y2	Z2	X3	Y3	Z3	X4	Y4	Z4	X5	Y5	Z5	X6	Y6	Z6	X7	Y7	Z7	X8	Y8	Z8	X9	Y9	Z9	X10	Y10	Z10	X11	Y11	Z11	X12	Y12	Z12	X13	Y13	Z13	X14	Y14	Z14	X15	Y15	Z15	X16	Y16	Z16	X17	Y17	Z17	X18	Y18	Z18	X19	Y19	Z19	X20	Y20	Z20	X21	Y21	Z21	X22	Y22	Z22	X23	Y23	Z23	X24	Y24	Z24	X25	Y25	Z25	X26	Y26	Z26	X27	Y27	Z27	X28	Y28	Z28	X29	Y29	Z29	X30	Y30	Z30	X31	Y31	Z31	X32	Y32	Z32	X33	Y33	Z33	X34	Y34	Z34	X35	Y35	Z35	X36	Y36	Z36	X37	Y37	Z37	X38	Y38	Z38	X39	Y39	Z39	X40	Y40	Z40	X41	Y41	Z41	X42	Y42	Z42	X43	Y43	Z43	X44	Y44	Z44	X45	Y45	Z45	X46	Y46	Z46	X47	Y47	Z47	X48	Y48	Z48	X49	Y49	Z49	X50	Y50	Z50	X51	Y51	Z51	

66	0.27083	-1189.1	1228	315.71	-1315.1	1460.6	487.07	-1326.5	1484.7	151.52	-1299.2	1781	332.49	-1206.2	1005.4	429.48	-1190	1019.2	199.01	NaN	NaN	NaN	NaN	NaN	NaN	-1288.2	886.48	489.64	-1272.7	918.96	122.67	-1308.9	1072.4	473.56	-1287.7	1100.9	165.61	-1417.7	999.42	293.22	-1278.9	683.42	475.39	-1184.8	593.55	462.98	-1264.3	595.49	459.43	-1198.3	686.63	477.41	-1218.4	498.23	456.27	-1222.6	498.62	321.58	-1388.5	426.89	460.45	-1393.8	337.42	441.02	NaN	NaN	NaN	-1334.2	384.25	449.29	-1581.5	280.98	421.33	-1545	258.5	346.43	-1633.8	296.61	368.62	-1643.4	270.33	343.22	-1650.9	283	402.72	-1569.5	130.72	461.47	-1541.1	116.78	347.42	NaN	NaN	NaN	-1253.7	700.4	142.78	-1151.8	629.77	172.91	-1222.1	617.28	164.76	-1177	711.62	142.76	-1190.7	521.63	189.69	-1196.2	525.56	313.73	-1248.9	339.15	192.02	-1179.6	254.93	218.92	-1252.7	266.68	211.19	-1182.3	328.19	199.57	-1235.4	97.462	230.87	-1208.8	107.02	320.37	-1282	74.075	284.78	-1268.5	41.429	315.62	-1275.8	48.182	252.17	-1100.9	41.407	217.74	-1082.2	47.607	332.05	-1018.9	67.784	283.1	-1393.4	1517.5	315	-1431.6	1230.1	327.66
67	0.275	-1184.4	1228.8	315.55	-1310.4	1461.3	487	-1321.7	1485.6	151.49	-1293.9	1781.7	332.48	-1201.5	1006.3	429.07	-1185.7	1019.7	198.57	NaN	NaN	NaN	NaN	NaN	NaN	-1282.4	887.38	489.49	-1268.6	919.58	122.43	-1303.8	1073.3	473.35	-1283.1	1101.6	165.35	-1412.9	1000.1	293.23	-1270.7	684.32	475.53	-1175.8	595.56	462.92	-1254.6	596.51	459.5	-1190.4	688.43	477.32	-1208	499.77	456.01	-1212.8	500.25	321.39	-1377.3	426.88	460.39	-1382.1	337.55	441.11	NaN	NaN	NaN	-1323	384.81	449.14	-1569.4	279.22	421.49	-1532.7	257.08	346.55	-1622.2	293.53	369.06	-1631.6	266.85	343.77	-1639.4	279.7	403.28	-1554.3	129.35	462.3	-1526.1	115.54	348.09	NaN	NaN	NaN	-1250.6	700.95	142.57	-1149.6	629.52	172.9	-1219.8	617.58	164.58	-1174.9	711.27	143.19	-1189	521.62	189.67	-1194.9	525.68	313.88	-1248	339.28	192.04	-1179	254.87	219.03	-1252.1	266.81	211.29	-1181.4	328.08	199.58	-1235.1	97.599	231.06	-1208.6	107.02	320.63	-1281.9	74.18	284.84	-1268.5	41.435	315.62	-1275.8	48.305	252.18	-1100.8	41.346	217.73	-1082.2	47.287	332.27	-1018.8	67.34	283.18	-1388.3	1518.2	314.83	-1426.8	1230.8	327.37
68	0.27917	-1179.6	1229.6	315.4	-1305.6	1462	486.93	-1316.9	1486.5	151.48	-1288.7	1782.4	332.47	-1196.7	1007.1	428.66	-1181.3	1020.3	198.11	NaN	NaN	NaN	NaN	NaN	NaN	-1276.6	888.26	489.34	-1264.6	920.16	122.19	-1298.8	1074.1	473.15	-1278.5	1102.2	165.09	-1408.2	1000.7	293.25	-1262.5	685.23	475.7	-1166.8	597.59	462.81	-1245	597.57	459.59	-1182.5	690.25	477.2	-1197.7	501.34	455.74	-1203	501.92	321.22	-1366.1	426.77	460.36	-1370.4	337.61	441.21	NaN	NaN	NaN	-1311.8	385.32	448.98	-1557.2	277.24	421.68	-1520.2	255.49	346.67	-1610.5	290.24	369.52	-1619.6	263.18	344.33	-1627.8	276.17	403.87	-1538.9	127.81	463.04	-1510.9	114.19	348.67	NaN	NaN	NaN	-1247.6	701.48	142.38	-1147.3	629.26	172.9	-1217.5	617.87	164.42	-1172.7	710.93	143.59	-1187.4	521.59	189.66	-1193.6	525.79	314.05	-1247.1	339.41	192.08	-1178.4	254.81	219.16	-1251.4	266.93	211.39	-1180.5	327.97	199.63	-1234.7	97.735	231.26	-1208.4	107.01	320.9	-1281.9	74.288	284.92	-1268.5	41.445	315.63	-1275.7	48.43	252.19	-1100.8	41.296	217.72	-1082.1	46.954	332.5	-1018.6	66.887	283.27	-1383.3	1518.9	314.65	-1422	1231.6	327.07
69	0.28333	-1174.8	1230.3	315.24	-1300.8	1462.7	486.86	-1312.1	1487.4	151.47	-1283.4	1783.1	332.46	-1191.8	1008	428.23	-1176.8	1020.8	197.65	NaN	NaN	NaN	NaN	NaN	NaN	-1270.7	889.13	489.19	-1260.6	920.7	121.95	-1293.8	1074.9	472.93	-1273.9	1102.9	164.82	-1403.4	1001.4	293.27	-1254.3	686.17	475.89	-1157.9	599.64	462.65	-1235.3	598.66	459.71	-1174.6	692.1	477.05	-1187.5	502.95	455.46	-1193.3	503.62	321.04	-1354.9	426.58	460.34	-1358.6	337.6	441.3	NaN	NaN	NaN	-1300.6	385.77	448.81	-1544.9	275.05	421.92	-1507.6	253.75	346.81	-1598.6	286.74	370.01	-1607.5	259.33	344.91	-1616.1	272.41	404.46	-1523.4	126.14	463.71	-1495.6	112.75	349.18	NaN	NaN	NaN	-1244.6	701.98	142.22	-1145.1	628.98	172.92	-1215.3	618.14	164.29	-1170.4	710.62	143.93	-1185.8	521.57	189.66	-1192.2	525.88	314.22	-1246.3	339.53	192.13	-1177.7	254.76	219.31	-1250.8	267.04	211.5	-1179.6	327.87	199.7	-1234.4	97.871	231.48	-1208.3	106.98	321.17	-1281.8	74.403	285	-1268.5	41.46	315.64	-1275.6	48.556	252.21	-1100.7	41.258	217.72	-1082	46.606	332.74	-1018.5	66.423	283.37	-1378.2	1519.5	314.48	-1417.2	1232.3	326.78
70	0.2875	-1170.1	1231	315.08	-1296	1463.3	486.8	-1307.4	1488.3	151.48	-1278.2	1783.7	332.45	-1186.8	1008.8	427.79	-1172.2	1021.3	197.19	NaN	NaN	NaN	NaN	NaN	NaN	-1264.8	889.98	489.05	-1256.7	921.21	121.71	-1288.8	1075.7	472.72	-1269.4	1103.4	164.55	-1398.7	1001.9	293.29	-1246.1	687.12	476.11	-1149.1	601.71	462.44	-1225.7	599.79	459.86	-1166.8	693.95	476.87	-1177.3	504.6	455.18	-1183.8	505.35	320.86	-1343.8	426.3	460.34	-1346.8	337.51	441.39	NaN	NaN	NaN	-1289.3	386.17	448.64	-1532.4	272.66	422.19	-1494.9	251.85	346.94	-1586.7	283.06	370.5	-1595.2	255.3	345.49	-1604.2	268.42	405.06	-1507.7	124.32	464.29	-1480.1	111.23	349.62	NaN	NaN	NaN	-1241.7	702.46	142.09	-1142.9	628.67	172.95	-1213	618.39	164.18	-1168	710.34	144.2	-1184.3	521.53	189.68	-1190.8	525.95	314.4	-1245.4	339.64	192.18	-1177.1	254.7	219.48	-1250.1	267.13	211.6	-1178.6	327.78	199.8	-1234	98.006	231.72	-1208.1	106.94	321.44	-1281.8	74.523	285.1	-1268.5	41.482	315.66	-1275.6	48.682	252.24	-1100.6	41.231	217.72	-1081.9	46.246	332.99	-1018.4	65.95	283.47	-1373	1520.2	314.32	-1412.4	1233	326.49
71	0.29167	-1165.4	1231.7	314.93	-1291.1	1463.9	486.74	-1302.6	1489.1	151.49	-1273	1784.4	332.44	-1181.8	1009.6	427.35	-1167.6	1021.9	196.73	NaN	NaN	NaN	NaN	NaN	NaN	-1258.8	890.82	488.9	-1252.9	921.68	121.46	-1283.8	1076.5	472.5	-1264.8	1104	164.28	-1394	1002.5	293.32	-1237.9	688.09	476.35	-1140.3	603.79	462.19	-1216.1	600.96	460.03	-1158.9	695.83	476.66	-1167.2	506.27	454.89	-1174.3	507.1	320.68	-1332.6	425.92	460.36	-1334.9	337.33	441.47	NaN	NaN	NaN	-1278.1	386.53	448.46	-1519.7	270.06	422.49	-1482.2	249.81	347.08	-1574.7	279.19	371.01	-1582.8	251.11	346.08	-1592.1	264.23	405.66	-1491.8	122.37	464.8	-1464.5	109.63	349.98	NaN	NaN	NaN	-1238.7	702.91	141.99	-1140.8	628.35	172.99	-1210.8	618.62	164.09	-1165.5	710.11	144.38	-1182.7	521.5	189.71	-1189.4	526	314.57	-1244.5	339.74	192.24	-1176.4	254.65	219.67	-1249.4	267.22	211.7	-1177.7	327.7	199.93	-1233.6	98.142	231.96	-1208	106.89	321.71	-1281.8	74.652	285.2	-1268.6	41.513	315.68	-1275.5	48.809	252.27	-1100.4	41.216	217.73	-1081.8	45.874	333.23	-1018.2	65.467	283.58	-1367.9	1520.7	314.16	-1407.7	1233.7	326.2
